<svg xmlns="http://www.w3.org/2000/svg" version="1.1" xmlns:xlink="http://www.w3.org/1999/xlink"
    xmlns:toolbox="tag:scheidt-bachmann-st.com,2021:hs" viewBox="0 0 200 200" stroke="black" stroke-width="2.5">
    <defs>
        <g class="gleissperren" id="kreis">
            <path d="M35,15 L35,0 L10,0" fill="transparent" />
            <circle cy="0" cx="10" r="10" fill="white" />
            <line x1="10" x2="10" y1="-10" y2="10" />
            <toolbox:anchor id="mastAnkerBottom" x="35" y="15" />
            <toolbox:rectbound x="0" y="-10" width="35" height="25" />
        </g>

        <g class="gleissperren" id="sperren">
            <rect id="main" x="0" y="0" width="10" height="40" fill="black" />
            <g>
                <line x1="25" x2="-12" y1="0" y2="37" />
                <path d="M -16.25 41.25 l 7.1 -12.7 l 5.6 5.6 z" stroke-width="0"/>
            </g>
            <toolbox:anchor id="mastAnkerTop" x="5" y="0" />
            <toolbox:anchor id="mastAnkerBottom" x="5" y="40" />
            <toolbox:rectbound x="0" y="0" width="10" height="40" />
            <toolbox:rectbound x="0" y="0" width="2" height="56" transform="translate(24 1) rotate(45)" />
        </g>

        <g class="gleissperren" id="sperren_doppelte">
            <rect id="main" x="0" y="0" width="10" height="50" fill="black" />
            <g>
                <line x1="25" x2="-12" y1="0" y2="37" />
                <path d="M -16.25 41.25 l 7.1 -12.7 l 5.6 5.6 z" stroke-width="0" />
                <line x1="25" x2="-12" y1="10" y2="47" />
                <path d="M -16.25 51.25 l 7.1 -12.7 l 5.6 5.6 z" stroke-width="0"/>
            </g>
            <toolbox:anchor id="mastAnkerTop" x="5" y="0" />
            <toolbox:anchor id="mastAnkerBottom" x="5" y="50" />
            <toolbox:rectbound x="0" y="0" width="10" height="50" />
            <toolbox:rectbound x="0" y="0" width="7" height="60" transform="translate(22 3) rotate(45)" />
        </g>
        
        <pattern 
                id="diagonalHatch"
                patternUnits="userSpaceOnUse"
                patternTransform="rotate(45)"
                width="0.5"
                height="7">
            <rect width="0.5" height="7" stroke="white"/>
            <path d="M-1,0 L6,0 " stroke="black" stroke-width="1.3"/>
        </pattern>
         
        <toolbox:rectbound x="0" y="0" width="10" height="50" />
        <toolbox:rectbound x="0" y="0" width="7" height="60" transform="translate(22 3) rotate(45)" />
    </defs>

    <g width="200" height="200" transform="translate(100,100) rotate(0)">
        <use xlink:href="#sperren_doppelte"/>
    </g>
</svg>