<svg xmlns="http://www.w3.org/2000/svg" version="1.1" xmlns:xlink="http://www.w3.org/1999/xlink"
    xmlns:toolbox="tag:scheidt-bachmann-st.com,2021:hs" viewBox="0 0 200 200">
    <defs>
        <!-- Selbst gemessen -->
        <g class="HvSys" id="HpVr" >
            <circle r="17.5" cx="17.5" cy="17.5"/>
            <circle r="17.5" cx="17.5" cy="51.5"/>
            <circle r="7.5" cx="24.5" cy="80"/>
            <circle r="7.5" cx="10.5" cy="95"/>
            <toolbox:anchor id="mastAnkerTop" x="17.5" y="0" />
            <toolbox:anchor id="mastAnkerBottom" x="17.5" y="69"/>
            <toolbox:rectbound x="0" y="0" width="35" height="102.5" />
        </g>

        <!-- Selbst gemessen -->
        <g class="HvSys" id="Hp1">
            <circle r="17.5" cx="17.5" cy="17.5"/>
            <circle r="17.5" cx="17.5" cy="51.5"/>
            <toolbox:anchor id="mastAnkerTop" x="17.5" y="0" />
            <toolbox:anchor id="mastAnkerBottom" x="17.5" y="69"/>
            <toolbox:rectbound x="0" y="0" width="35" height="69" />
        </g>

        <!-- Selbst gemessen -->
        <g class="HvSys" id="Hp2">
            <rect width="35" height="15"/>
            <toolbox:anchor id="mastAnkerTop" x="0" y="15" />
            <toolbox:anchor id="mastAnkerBottom" x="0" y="0"/>
            <toolbox:rectbound x="0" y="0" width="35" height="15" />
        </g>

        <!-- Selbst gemessen -->
        <g class="HvSys" id="Vr1">
            <circle r="10" cx="35" cy="20"/>
            <circle r="10" cx="5" cy="40"/>
            <toolbox:anchor id="mastAnkerTop" x="20" y="40" />
            <toolbox:anchor id="mastAnkerBottom" x="20" y="20"/>
            <toolbox:rectbound x="-5" y="-10" width="50" height="40" />
        </g>

          <!-- Selbst gemessen -->
        <g class="schirm" id="Vr2">
            <circle r="17.5" cx="17.5" cy="17.5"/>
            <circle r="14" cx="17.5" cy="17.5" fill="white" />
            <circle r="10" cx="17.5" cy="17.5" />
            <toolbox:anchor id="mastAnkerTop" x="17.5" y="0" />
            <toolbox:anchor id="mastAnkerBottom" x="17.5" y="35"/>
            <toolbox:rectbound x="0" y="0" width="35" height="35" />
        </g>
    </defs>

    <g width="100" height="100" transform="translate(20,20)">
       <use xlink:href="#Vr2" />
    </g>
</svg>