<svg xmlns="http://www.w3.org/2000/svg" version="1.1" xmlns:xlink="http://www.w3.org/1999/xlink"
    xmlns:toolbox="tag:scheidt-bachmann-st.com,2021:hs" viewBox="0 0 200 200" stroke="black" stroke-width="2.5">
    <defs>
        <!-- Signalhaltmelder -->
        <g class="orientierungszeichen" id="NISESHM">
            <rect width="20" height="20" fill="white" />
            <line x1="5" x2="15" y1="5" y2="5" stroke-linecap="round" />
            <line x1="5" x2="5" y1="5" y2="15" stroke-linecap="round" />
            <toolbox:anchor id="mastAnkerTop" x="10" y="0" />
            <toolbox:anchor id="mastAnkerBottom" x="10" y="20" />
            <toolbox:rectbound x="-1.25" y="-1.25" width="22.5" height="22.5" />
        </g>

        <!-- Signalfahrtanzeiger -->
        <g class="orientierungszeichen" id="OzFa">
            <rect width="20" height="20" fill="white" />
            <line x1="5" x2="15" y1="15" y2="5" stroke-linecap="round" />
            <toolbox:anchor id="mastAnkerTop" x="10" y="0" />
            <toolbox:anchor id="mastAnkerBottom" x="10" y="20" />
            <toolbox:rectbound x="-1.25" y="-1.25" width="22.5" height="22.5" />
        </g>

        <!-- LZB-Bereichskennzeichen -->
        <!-- Selbst gemessen -->
        <g class="orientierungszeichen" id="OzLZBBer">
            <rect width="40" height="20" fill="white" />
            <text x="10" y="15" font-size="15" stroke-width="0.5" font-family="siteplanfont">
                LZB
            </text>
            <toolbox:anchor id="mastAnkerTop" x="20" y="0" />
            <toolbox:anchor id="mastAnkerBottom" x="20" y="20" />
            <toolbox:rectbound x="-1.25" y="-1.25" width="42.5" height="22.5" />
        </g>

        <!-- Selbst gemessen -->
        <g class="orientierungszeichen" id="ZBS_Bereichskennzeichen">
            <rect width="40" height="20" fill="white" />
            <text x="10" y="15" font-size="15" stroke-width="0.5" font-family="siteplanfont">
                ZBS
            </text>
            <toolbox:anchor id="mastAnkerTop" x="20" y="0" />
            <toolbox:anchor id="mastAnkerBottom" x="20" y="20" />
            <toolbox:rectbound x="-1.25" y="-1.25" width="42.5" height="22.5" />
        </g>

        <!-- Blockkennzeichen (alt) -->
        <!-- Selbst gemessen -->
        <g class="orientierungszeichen" id="OzBk">
            <rect width="20" height="20" fill="white" />
            <circle r="8" cx="10" cy="10" fill="white" stroke-width="2.5" />
            <toolbox:anchor id="mastAnkerTop" x="10" y="0" />
            <toolbox:rectbound x="-1.25" y="-1.25" width="22.5" height="22.5" />
        </g>

        <g class="orientierungszeichen" id="Blockkennzeichen_links">
            <rect width="20" height="20" fill="white" />
            <path d="M2,10 L10,2 L10,6 L18,6 L18,14 L10,14 L10,18 z" stroke-width="0" stroke="white" fill="black" />
            <toolbox:anchor id="mastAnkerTop" x="10" y="0" />
            <toolbox:anchor id="mastAnkerBottom" x="10" y="20" />
            <toolbox:rectbound x="-1.25" y="-1.25" width="22.5" height="22.5" />
        </g>

        <g class="orientierungszeichen" id="Blockkennzeichen_rechts">
            <rect width="20" height="20" fill="white" />
            <path d="M18,10 L10,2 L10,6 L2,6 L2,14 L10,14 L10,18 z" stroke-width="0" stroke="white" fill="black" />
            <toolbox:anchor id="mastAnkerTop" x="10" y="0" />
            <toolbox:anchor id="mastAnkerBottom" x="10" y="20" />
            <toolbox:rectbound x="-1.25" y="-1.25" width="22.5" height="22.5" />
        </g>

        <!-- Ortsstellbereich -->
        <!-- Selbst gemessen -->
        <g class="orientierungszeichen" id="OzOBGrenze">
            <rect width="40" height="20" fill="white" />
            <text x="10" y="15" font-size="15" stroke-width="0.5" font-family="siteplanfont">
                OB
            </text>
            <toolbox:anchor id="mastAnkerTop" x="20" y="0" />
            <toolbox:anchor id="mastAnkerBottom" x="20" y="20" />
            <toolbox:rectbound x="-1.25" y="-1.25" width="42.5" height="22.5" />
        </g>

        <g class="orientierungszeichen" id="OzPZBBUE">
            <rect width="40" height="25" fill="white" />
            <text x="10" y="11" font-size="11" stroke-width="0.5" font-family="siteplanfont">
                PZB
            </text>
            <text x="13" y="22" font-size="11" stroke-width="0.5" font-family="siteplanfont">
                BÜ
            </text>
            <toolbox:anchor id="mastAnkerTop" x="20" y="0" />
            <toolbox:anchor id="mastAnkerBottom" x="20" y="20" />
            <toolbox:rectbound x="-1.25" y="-1.25" width="42.5" height="29.5" />
        </g>
    </defs>

    <g width="100" height="100" transform="translate(20,20)">
        <use xlink:href="#OzPZBBUE" />
    </g>
</svg>