<svg xmlns="http://www.w3.org/2000/svg" version="1.1" xmlns:xlink="http://www.w3.org/1999/xlink"
    xmlns:toolbox="tag:scheidt-bachmann-st.com,2021:hs" viewBox="0 0 200 200" 
    stroke="black" stroke-width="2.5">
    <defs>
        <!-- Alle Zeichnungen ohne Bahnvorgabe erstellt -->
        <g class="PZB" id="GUE" >
            <rect x="0" y="-12.5" width="9" height="25"/>
            <toolbox:rectbound x="-1.25" y="-13.75" width="11.25" height="27.5" />
        </g>
        <g class="PZB" id="SwitchedSingle" >
            <rect x="0" y="-12.5" width="9" height="25" fill="white" stroke="black"/>
            <toolbox:rectbound x="-1.25" y="-13.75" width="11.25" height="27.5" />
        </g>
        <g class="PZB" id="Error" >
            <rect x="0" y="-12.5" width="9" height="25" fill="white" stroke="blue" />
            <toolbox:rectbound x="-1.25" y="-13.75" width="11.5" height="27.5" />
        </g>
        <g class="PZB" id="SwitchedDouble" >
            <rect x="0" y="-12.5" width="9" height="25" fill="white" stroke="black"/>
            <rect x="0" y="-12.5" width="9" height="12.5" fill="white" stroke="black"/>
            <toolbox:rectbound x="-1.25" y="-13.75" width="11.5" height="27.5" />
        </g>
        <g class="PZB" id="PermanentSingle" >
            <rect x="0" y="-17.5" width="13" height="33" fill="white" stroke="black"/>
            <rect x="0" y="-13.5" width="9" height="25" fill="white" stroke="black"/>
            <toolbox:rectbound x="-1.25" y="-18.75" width="15.5" height="35.5" />
        </g>        
        <g class="PZB" id="PermanentDouble" >
            <rect x="0" y="0" width="13" height="16.5" fill="white" stroke="black"/>
            <rect x="0" y="-13.5" width="9" height="27" fill="white" stroke="black"/>
            <rect x="0" y="-13.5" width="9" height="13.5" fill="white" stroke="black"/>
            <toolbox:rectbound x="-1.25" y="-14.75" width="15.5" height="32.5" />
        </g>
    </defs>

    <g width="100" height="100" transform="translate(20,20)">
        <use xlink:href="#PermanentSingle" />
    </g> 
</svg>