<svg xmlns="http://www.w3.org/2000/svg" version="1.1" xmlns:xlink="http://www.w3.org/1999/xlink"
    xmlns:toolbox="tag:scheidt-bachmann-st.com,2021:hs" viewBox="0 0 200 200"
    stroke="black" stroke-width="2.5">
    <defs>
        <!-- Selbst gemessen -->
        <g class="zuordnungstafel" id="links">
            <rect width="30" height="15" fill="white" />
            <path d="M15,2.5 L2.5,7.5 L15,12.5 z" stroke-width="0"/>
            <line x1="15" x2="25" y1="7.5" y2="7.5" stroke-linecap="round" />
            <toolbox:anchor id="mastAnkerTop" x="15" y="0" />
            <toolbox:anchor id="mastAnkerBottom" x="15" y="15" />
            <toolbox:rectbound x="-1.25" y="-1.25" width="32.5" height="17.5" />
        </g>
        <!-- Selbst gemessen -->
        <g class="zuordnungstafel" id="rechts">
            <rect width="30" height="15" fill="white"/>
            <line x1="5" x2="15" y1="7.5" y2="7.5" stroke-linecap="round"/>
            <path d="M15,2.5 L27.5,7.5 L15,12.5 z" stroke-width="0"/>
            <toolbox:anchor id="mastAnkerTop" x="15" y="0" />
            <toolbox:anchor id="mastAnkerBottom" x="15" y="15" />
            <toolbox:rectbound x="-1.25" y="-1.25" width="32.5" height="17.5" />
        </g>
        <!-- Selbst gemessen -->
        <g class="zuordnungstafel" id="beide">
            <rect width="30" height="20" fill="white"/>
            <line x1="5" x2="15" y1="6" y2="6" stroke-linecap="round"/>
            <path d="M15,2.5 L27.5,6 L15,9.5 z" stroke-width="0"/>
            <path d="M15,17.5 L2.5,14 L15,10.5 z" stroke-width="0"/>
            <line x1="15" x2="25" y1="14" y2="14" stroke-linecap="round" />
            <toolbox:anchor id="mastAnkerTop" x="15" y="0" />
            <toolbox:anchor id="mastAnkerBottom" x="15" y="20" />
            <toolbox:rectbound x="-1.25" y="-1.25" width="32.5" height="22.5" />
        </g>
    </defs>

    <g width="100" height="100" transform="translate(20,20)">
        <use xlink:href="#rechts"/>
    </g>
</svg>